# xmcd CD database file
#
# Track frame offsets:
#	150
#	15151
#	35743
#	52600
#
# Disc length: 898 seconds
#
# Revision: 0
# Processed by: cddbd v1.5.1PL0 Copyright (c) Steve Scherf et al.
# Submitted via: CDex 1.51
#
DISCID=1f038004
DTITLE=O・SU・SO・WA・KE〜プルプルンのキュッのボン!〜 - スーパービューティーミカリン+K with キューティーモンすたーズ
DYEAR=2004
DGENRE=JPop
TTITLE0=O・SU・SO・WA・KE〜プルプルンのキュッのボン!〜
TTITLE1=Sweet Lip
TTITLE2=Princess Love
TTITLE3=O・SU・SO・WA・KE〜プルプルンのキュッのボン!〜 オリジナルカラオケ
EXTD=YEAR: 2004
EXTT0=
EXTT1=
EXTT2=
EXTT3=
PLAYORDER=
